<?xml version="1.0" encoding="UTF-8" standalone="no"?>
<svg width="41px" height="41px" viewBox="0 0 41 41" version="1.1" xmlns="http://www.w3.org/2000/svg" xmlns:xlink="http://www.w3.org/1999/xlink" xmlns:sketch="http://www.bohemiancoding.com/sketch/ns">
    <!-- Generator: sketchtool 3.4.4 (395) - http://www.bohemiancoding.com/sketch -->
    <title>select_active_icon</title>
    <desc>Created with sketchtool.</desc>
    <defs></defs>
    <g id="Page-1" stroke="none" stroke-width="1" fill="none" fill-rule="evenodd" sketch:type="MSPage">
        <g id="QD-Invite-Connectors" sketch:type="MSArtboardGroup" transform="translate(-1178.000000, -372.000000)">
            <g id="select_active_icon" sketch:type="MSLayerGroup" transform="translate(1178.000000, 372.000000)">
                <path d="M20.5,38 C30.1649831,38 38,30.1649831 38,20.5 C38,14.1362385 34.6032348,8.56583406 29.5238791,5.50296121 C26.888947,3.9140861 23.8012216,3 20.5,3 C10.8350169,3 3,10.8350169 3,20.5 C3,30.1649831 10.8350169,38 20.5,38 Z" id="Oval-107-Copy" stroke="#CFD4D8" stroke-width="2" sketch:type="MSShapeGroup"></path>
                <path d="M20.5,36 C29.0604136,36 36,29.0604136 36,20.5 C36,14.8635256 32.9914366,9.92973874 28.4925786,7.2169085 C26.1587817,5.80961912 23.4239392,5 20.5,5 C11.9395864,5 5,11.9395864 5,20.5 C5,29.0604136 11.9395864,36 20.5,36 Z" id="Oval-107-Copy" fill="#6BE2C2" sketch:type="MSShapeGroup"></path>
            </g>
        </g>
    </g>
</svg>